<svg width="100" height="100" viewBox="0 0 7 7" fill="none" xmlns="http://www.w3.org/2000/svg">
<path fill-rule="evenodd" clip-rule="evenodd" d="M6.0155 3.7655C5.98067 3.80042 5.93929 3.82813 5.89373 3.84704C5.84817 3.86594 5.79933 3.87567 5.75 3.87567C5.70068 3.87567 5.65183 3.86594 5.60628 3.84704C5.56072 3.82813 5.51934 3.80042 5.4845 3.7655L3.5 1.78025L1.5155 3.7655C1.44509 3.83592 1.34958 3.87548 1.25 3.87548C1.15042 3.87548 1.05492 3.83592 0.984501 3.7655C0.914086 3.69509 0.874528 3.59958 0.874528 3.5C0.874528 3.40042 0.914086 3.30492 0.984501 3.2345L3.2345 0.984501C3.26934 0.949578 3.31072 0.921871 3.35628 0.902966C3.40184 0.884062 3.45068 0.874331 3.5 0.874331C3.54933 0.874331 3.59817 0.884062 3.64373 0.902966C3.68929 0.921871 3.73067 0.949578 3.7655 0.984501L6.0155 3.2345C6.05042 3.26934 6.07813 3.31072 6.09704 3.35628C6.11594 3.40184 6.12567 3.45068 6.12567 3.5C6.12567 3.54933 6.11594 3.59817 6.09704 3.64373C6.07813 3.68929 6.05042 3.73067 6.0155 3.7655Z" fill="black"/>
<path fill-rule="evenodd" clip-rule="evenodd" d="M3.5 6.125C3.40054 6.125 3.30516 6.08549 3.23483 6.01516C3.16451 5.94484 3.125 5.84946 3.125 5.75L3.125 2C3.125 1.90054 3.16451 1.80516 3.23483 1.73483C3.30516 1.66451 3.40054 1.625 3.5 1.625C3.59946 1.625 3.69484 1.66451 3.76516 1.73483C3.83549 1.80516 3.875 1.90054 3.875 2L3.875 5.75C3.875 5.84946 3.83549 5.94484 3.76516 6.01516C3.69484 6.08549 3.59946 6.125 3.5 6.125Z" fill="black"/>
</svg>
