<svg width="100" height="100" viewBox="0 0 10 10" fill="none" xmlns="http://www.w3.org/2000/svg">
<path d="M5.37474 4.9985L8.18874 2.18175C8.23838 2.13186 8.26623 2.06433 8.26619 1.99395C8.26614 1.92356 8.2382 1.85607 8.18849 1.80625C8.08899 1.70725 7.91374 1.70675 7.81324 1.80675L4.99999 4.6235L2.18574 1.806C2.08574 1.70725 1.91049 1.70775 1.81099 1.8065C1.78629 1.8311 1.76674 1.86037 1.75348 1.8926C1.74022 1.92484 1.73351 1.95939 1.73374 1.99425C1.73374 2.06525 1.76124 2.13175 1.81099 2.181L4.62499 4.99825L1.81124 7.81575C1.76159 7.86571 1.73378 7.93334 1.73392 8.00378C1.73406 8.07422 1.76214 8.14173 1.81199 8.1915C1.86024 8.23925 1.92849 8.26675 1.99899 8.26675H2.00049C2.07124 8.2665 2.13949 8.23875 2.18674 8.1905L4.99999 5.37375L7.81424 8.19125C7.86399 8.24075 7.93049 8.26825 8.00099 8.26825C8.03585 8.26835 8.07039 8.26155 8.10261 8.24826C8.13484 8.23496 8.16412 8.21543 8.18877 8.19078C8.21342 8.16613 8.23296 8.13685 8.24625 8.10462C8.25955 8.07239 8.26634 8.03786 8.26624 8.003C8.26624 7.93225 8.23874 7.8655 8.18874 7.81625L5.37474 4.9985Z" fill="#CC0000"/>
</svg>
