<svg width="110" height="110" viewBox="0 0 11 11" fill="none" xmlns="http://www.w3.org/2000/svg">
<path d="M8.00041 9.33486H0.666701V2.00114H5.0736L5.7403 1.33444H0.666701C0.489881 1.33444 0.320303 1.40468 0.195272 1.52971C0.0702415 1.65475 0 1.82432 0 2.00114V9.33486C0 9.51168 0.0702415 9.68126 0.195272 9.80629C0.320303 9.93132 0.489881 10.0016 0.666701 10.0016H8.00041C8.17724 10.0016 8.34681 9.93132 8.47184 9.80629C8.59687 9.68126 8.66712 9.51168 8.66712 9.33486V4.3346L8.00041 5.0013V9.33486Z" fill="#00229B"/>
<path d="M9.84386 1.28111L8.72047 0.157714C8.67061 0.107722 8.61138 0.0680576 8.54617 0.0409941C8.48096 0.0139307 8.41105 0 8.34045 0C8.26984 0 8.19993 0.0139307 8.13472 0.0409941C8.06951 0.0680576 8.01028 0.107722 7.96043 0.157714L3.39019 4.75462L3.02017 6.35804C3.00441 6.43576 3.00606 6.51601 3.02502 6.59302C3.04398 6.67002 3.07977 6.74187 3.12982 6.80339C3.17986 6.86492 3.24292 6.91458 3.31446 6.94882C3.38599 6.98306 3.46422 7.00101 3.54353 7.0014C3.58452 7.00592 3.62588 7.00592 3.66687 7.0014L5.28362 6.64472L9.84386 2.04115C9.89385 1.99129 9.93351 1.93206 9.96058 1.86685C9.98764 1.80164 10.0016 1.73173 10.0016 1.66113C10.0016 1.59052 9.98764 1.52061 9.96058 1.4554C9.93351 1.39019 9.89385 1.33096 9.84386 1.28111ZM4.93694 6.02802L3.71687 6.29803L4.00022 5.08797L7.4404 1.62446L8.38045 2.56451L4.93694 6.02802ZM8.75713 2.18782L7.81709 1.24777L8.33378 0.721077L9.28049 1.66779L8.75713 2.18782Z" fill="#00229B"/>
</svg>
